# xmcd
#
# Track frame offsets:
#	150
#	12269
#	28335
#	45708
#	62570
#	76308
#	95942
#	116685
#	129032
#	141764
#	156525
#	169451
#	186630
#	199481
#
# Disc length: 2988 seconds
#
# Revision: 0
# Processed by: cddbd v1.5.2PL0 Copyright (c) Steve Scherf et al.
# Submitted via: EasyCDDAExtractor 11.1.0.1
#
DISCID=d20baa0e
DTITLE=Various Artist - Mr. Music Country
DYEAR=2007
DGENRE=country
TTITLE0=DiverseLeland Martin - One more pillow fight
TTITLE1=Inger Nordström - Ain't no christmas
TTITLE2=Justin Trevino and Heather Myles - This time we're going to make it
TTITLE3=Jackson Taylor Band - Tequila freedom
TTITLE4=Don Wallace - Big mamou
TTITLE5=Miko Marks - Broken heart
TTITLE6=Tommy Alverson and Pauline Reese - Tequila rose
TTITLE7=Jason Boland and the Stragglers - Mexican holiday
TTITLE8=Kacey Musgraves - Nothing more
TTITLE9=Wade Bowen - Keep hangin' on
TTITLE10=Pam Tillis - Pretty paper
TTITLE11=Tracy Lawrence - Cold beer
TTITLE12=Wanella Collins - Christmas carol
TTITLE13=Owen Temple - Rivers run from many waters
EXTD=
EXTT0=
EXTT1=
EXTT2=
EXTT3=
EXTT4=
EXTT5=
EXTT6=
EXTT7=
EXTT8=
EXTT9=
EXTT10=
EXTT11=
EXTT12=
EXTT13=
PLAYORDER=
